<svg width="41" height="40" viewBox="0 0 41 40" fill="none" xmlns="http://www.w3.org/2000/svg">
<g clip-path="url(#clip0_545_327)">
<path d="M38.0665 10.7C37.8685 9.90898 37.4653 9.18425 36.8976 8.59897C36.3298 8.01369 35.6177 7.5886 34.8331 7.36663C31.9665 6.66663 20.4998 6.66663 20.4998 6.66663C20.4998 6.66663 9.03315 6.66663 6.16648 7.43329C5.38189 7.65527 4.66978 8.08036 4.10206 8.66564C3.53434 9.25091 3.13113 9.97564 2.93315 10.7666C2.4085 13.6759 2.15187 16.6271 2.16648 19.5833C2.14778 22.5617 2.40443 25.5355 2.93315 28.4666C3.15141 29.233 3.56366 29.9302 4.13005 30.4908C4.69645 31.0513 5.39785 31.4563 6.16648 31.6666C9.03315 32.4333 20.4998 32.4333 20.4998 32.4333C20.4998 32.4333 31.9665 32.4333 34.8331 31.6666C35.6177 31.4447 36.3298 31.0196 36.8976 30.4343C37.4653 29.849 37.8685 29.1243 38.0665 28.3333C38.5871 25.4459 38.8437 22.5172 38.8331 19.5833C38.8518 16.6049 38.5952 13.6311 38.0665 10.7V10.7Z" fill="#F95738" stroke="#F95738" stroke-width="3" stroke-linecap="round" stroke-linejoin="round"/>
<path d="M16.75 25.0333L26.3333 19.5833L16.75 14.1333V25.0333Z" fill="white"/>
</g>
<defs>
<clipPath id="clip0_545_327">
<rect width="40" height="40" fill="white" transform="translate(0.5)"/>
</clipPath>
</defs>
</svg>
